<svg width="313" height="79" viewBox="0 0 313 79" fill="none" xmlns="http://www.w3.org/2000/svg">
<path d="M38.6665 20.9619V33.2208L28.9141 23.4684L22.5254 29.8571L38.6665 45.9981V57.2283H47.7045V20.9619H38.6665Z" fill="#171717"/>
<path d="M39.3689 0L0 39.3689L39.3689 78.7377L78.7377 39.3689L39.3689 0ZM39.3689 72.4675C38.9525 72.4675 38.5361 72.3654 38.1605 72.1613L6.37235 40.3731C6.07843 39.8302 5.99678 39.2015 6.12741 38.6137L38.8178 5.9233C39.0015 5.88247 39.1852 5.86207 39.3689 5.86207C39.5526 5.86207 39.7404 5.88656 39.92 5.9233L72.6103 38.6137C72.741 39.2056 72.6593 39.8302 72.3654 40.3731L40.5772 72.1613C40.2016 72.3654 39.7853 72.4675 39.3689 72.4675Z" fill="#171717"/>
<path d="M105.717 34.8005C100.7 34.1188 99.267 33.3269 99.267 31.2939C99.267 29.1018 101.3 28.122 104.325 28.122C107.644 28.122 110.244 29.4079 110.281 32.3471H115.375C115.298 27.2158 111.15 23.5581 104.59 23.5581C98.03 23.5581 94.1764 26.579 94.1764 31.5225C94.1764 36.0864 96.6625 37.9724 104.59 39.1807C109.003 39.8625 110.436 40.7606 110.436 42.916C110.436 45.3286 108.289 46.3859 105.117 46.3859C100.741 46.3859 98.2137 44.3529 98.177 41.3688H93.1191C93.1967 47.0308 97.4218 50.9538 104.966 50.9538C111.342 50.9538 115.53 47.9003 115.53 42.7282C115.53 38.05 112.702 35.7517 105.721 34.8046L105.717 34.8005Z" fill="#171717"/>
<path d="M127.904 30.8774C122.091 30.8774 117.906 35.0658 117.906 40.8707C117.906 46.6756 122.095 50.9456 128.014 50.9456C133.296 50.9456 136.917 47.8145 137.448 44.1569H132.806C132.427 45.5122 130.847 46.9083 128.165 46.9083C125.111 46.9083 123.152 45.1774 122.736 42.1158H137.672C138.579 35.6659 134.166 30.8774 127.904 30.8774ZM122.887 38.7969C123.523 36.3435 125.336 34.9107 127.977 34.9107C130.618 34.9107 132.582 36.3394 133.186 38.7969H122.891H122.887Z" fill="#171717"/>
<path d="M149.675 46.6064C146.462 46.6064 144.356 44.3448 144.356 40.9076C144.356 37.4704 146.466 35.2129 149.675 35.2129C152.243 35.2129 154.198 36.707 154.708 38.9359H159.497C158.994 34.176 155.043 30.8735 149.638 30.8735C143.637 30.8735 139.412 35.0986 139.412 40.9035C139.412 46.7084 143.674 50.9417 149.601 50.9417C155.031 50.9417 159.019 47.578 159.497 42.8385H154.704C154.186 45.1531 152.238 46.6064 149.675 46.6064Z" fill="#171717"/>
<path d="M171.29 30.8774C165.289 30.8774 160.99 35.0658 160.99 40.9074C160.99 46.7491 165.293 50.9456 171.29 50.9456C177.286 50.9456 181.589 46.794 181.589 40.9074C181.589 35.0209 177.327 30.8774 171.29 30.8774ZM171.29 46.6062C168.085 46.6062 165.93 44.3814 165.93 40.9074C165.93 37.4335 168.081 35.2128 171.29 35.2128C174.498 35.2128 176.65 37.4743 176.65 40.9074C176.65 44.3406 174.535 46.6062 171.29 46.6062Z" fill="#171717"/>
<path d="M195.06 30.8774C192.68 30.8774 190.533 31.7796 189.398 33.9677H189.096V31.3673H184.418V50.4517H189.096V39.4378C189.096 36.7558 190.57 35.176 193.133 35.176C195.697 35.176 197.134 36.6823 197.134 39.4378V50.4517H201.812V38.3438C201.812 33.7023 199.249 30.8774 195.06 30.8774Z" fill="#171717"/>
<path d="M220.447 24.0435V34.2694H220.19C218.868 31.9262 216.337 30.8771 213.7 30.8771C208.266 30.8771 204.494 35.0654 204.494 40.9071C204.494 46.7487 208.266 50.9452 213.7 50.9452C216.377 50.9452 218.868 49.888 220.19 47.5529H220.447V50.4554H225.162V24.0475H220.447V24.0435ZM214.945 46.6426C211.581 46.6426 209.397 44.4178 209.397 40.9071C209.397 37.3964 211.581 35.1757 214.945 35.1757C218.308 35.1757 220.447 37.4372 220.447 40.9071C220.447 44.377 218.3 46.6426 214.945 46.6426Z" fill="#171717"/>
<path d="M234.453 45.8142V24.0479H229.51V50.4557H247.618V45.8142H234.453Z" fill="#171717"/>
<path d="M264.557 31.3673V34.2698H264.292C262.969 31.9266 260.446 30.8774 257.801 30.8774C252.372 30.8774 248.596 35.0658 248.596 40.9074C248.596 46.7491 252.372 50.9456 257.801 50.9456C260.483 50.9456 262.969 49.8883 264.292 47.5533H264.557V50.4557H269.272V31.3714H264.557V31.3673ZM259.05 46.643C255.695 46.643 253.503 44.4181 253.503 40.9074C253.503 37.3967 255.695 35.176 259.05 35.176C262.406 35.176 264.561 37.4376 264.561 40.9074C264.561 44.3773 262.41 46.643 259.05 46.643Z" fill="#171717"/>
<path d="M283.763 30.8774C281.383 30.8774 279.236 31.7796 278.101 33.9677H277.799V31.3673H273.121V50.4517H277.799V39.4378C277.799 36.7558 279.273 35.176 281.837 35.176C284.4 35.176 285.837 36.6823 285.837 39.4378V50.4517H290.515V38.3438C290.515 33.7023 287.952 30.8774 283.763 30.8774Z" fill="#171717"/>
<path d="M303.116 30.8774C297.303 30.8774 293.119 35.0658 293.119 40.8707C293.119 46.6756 297.307 50.9456 303.231 50.9456C308.509 50.9456 312.134 47.8145 312.657 44.1569H308.019C307.64 45.5122 306.056 46.9083 303.378 46.9083C300.316 46.9083 298.361 45.1774 297.944 42.1158H312.881C313.787 35.6659 309.375 30.8774 303.112 30.8774H303.116ZM298.099 38.7969C298.74 36.3435 300.549 34.9107 303.194 34.9107C305.839 34.9107 307.799 36.3394 308.395 38.7969H298.099Z" fill="#171717"/>
</svg>
