<svg width="200" height="200" viewBox="0 0 200 200" fill="none" xmlns="http://www.w3.org/2000/svg">
  <rect width="200" height="200" rx="100" fill="#F3F3F3" />
  
  <!-- Document with chart -->
  <rect x="60" y="50" width="80" height="100" rx="4" fill="#FFFFFF" stroke="#4B4F47" stroke-width="2"/>
  <line x1="70" y1="70" x2="130" y2="70" stroke="#4B4F47" stroke-width="2"/>
  <line x1="70" y1="85" x2="110" y2="85" stroke="#4B4F47" stroke-width="2"/>
  
  <!-- Chart bars -->
  <rect x="70" y="100" width="10" height="20" fill="#A5D2FF"/>
  <rect x="85" y="95" width="10" height="25" fill="#A5D2FF"/>
  <rect x="100" y="90" width="10" height="30" fill="#A5D2FF"/>
  <rect x="115" y="105" width="10" height="15" fill="#A5D2FF"/>
  
  <!-- Checkmark -->
  <circle cx="145" cy="55" r="18" fill="#4B4F47" fill-opacity="0.1"/>
  <path d="M137 55L143 61L153 49" stroke="#4B4F47" stroke-width="3" stroke-linecap="round" stroke-linejoin="round"/>
  
  <!-- Magnifying glass -->
  <circle cx="55" cy="145" r="18" fill="#4B4F47" fill-opacity="0.1"/>
  <circle cx="55" cy="145" r="10" stroke="#4B4F47" stroke-width="2"/>
  <line x1="62.4142" y1="152.414" x2="69.4142" y2="159.414" stroke="#4B4F47" stroke-width="2" stroke-linecap="round"/>
  
  <!-- Dollar sign -->
  <circle cx="145" cy="145" r="18" fill="#4B4F47" fill-opacity="0.1"/>
  <path d="M145 135V155" stroke="#4B4F47" stroke-width="2" stroke-linecap="round"/>
  <path d="M150 138H142.5C140.567 138 139 139.567 139 141.5C139 143.433 140.567 145 142.5 145H147.5C149.433 145 151 146.567 151 148.5C151 150.433 149.433 152 147.5 152H139" stroke="#4B4F47" stroke-width="2" stroke-linecap="round"/>
</svg> 